<svg width="16" height="20" viewBox="0 0 16 20" fill="none" xmlns="http://www.w3.org/2000/svg">
<path d="M14.8586 9.23208C14.835 9.1319 14.7869 9.03913 14.7188 8.96199C14.6506 8.88484 14.5645 8.82573 14.468 8.78989L9.96721 7.10161L11.1125 1.3727C11.1385 1.23959 11.1204 1.10166 11.0611 0.979716C11.0017 0.857774 10.9043 0.758439 10.7836 0.6967C10.6629 0.634962 10.5253 0.61417 10.3917 0.637463C10.2581 0.660755 10.1357 0.726868 10.043 0.825824L1.29299 10.2008C1.22193 10.2757 1.17052 10.367 1.14336 10.4666C1.1162 10.5662 1.11413 10.671 1.13734 10.7716C1.16056 10.8722 1.20833 10.9655 1.27639 11.0431C1.34445 11.1207 1.43068 11.1803 1.52737 11.2165L6.02971 12.9047L4.88753 18.6274C4.86159 18.7605 4.87965 18.8984 4.93899 19.0204C4.99832 19.1423 5.09571 19.2416 5.21645 19.3034C5.3372 19.3651 5.47474 19.3859 5.60834 19.3626C5.74194 19.3393 5.86433 19.2732 5.95706 19.1743L14.7071 9.79926C14.7768 9.72436 14.8272 9.63347 14.8536 9.53457C14.88 9.43567 14.8817 9.3318 14.8586 9.23208ZM6.54456 16.7188L7.36253 12.6266C7.3918 12.4815 7.3686 12.3307 7.29707 12.201C7.22553 12.0714 7.1103 11.9714 6.9719 11.9188L2.84378 10.368L9.45471 3.2852L8.63753 7.37739C8.60825 7.52252 8.63145 7.67333 8.70299 7.80296C8.77452 7.93258 8.88975 8.0326 9.02815 8.0852L13.1532 9.63208L6.54456 16.7188Z" fill="#797979"/>
</svg>
