<svg width="10" height="10" viewBox="0 0 10 10" fill="none" xmlns="http://www.w3.org/2000/svg">
<path fill-rule="evenodd" clip-rule="evenodd" d="M1.55179 8.90533C1.42556 9.03156 1.2209 9.03156 1.09467 8.90533C0.968443 8.77909 0.968443 8.57444 1.09467 8.4482L4.54289 5L1.09467 1.55179C0.968443 1.42556 0.968443 1.2209 1.09467 1.09467C1.2209 0.968442 1.42556 0.968442 1.55179 1.09467L5 4.54289L8.4482 1.09467C8.57444 0.968442 8.77909 0.968442 8.90533 1.09467C9.03156 1.2209 9.03156 1.42556 8.90533 1.55179L5.45711 5L8.90533 8.4482C9.03156 8.57444 9.03156 8.77909 8.90533 8.90533C8.77909 9.03156 8.57444 9.03156 8.4482 8.90533L5 5.45711L1.55179 8.90533Z" fill="white" stroke="white"/>
</svg>
