<svg width="67" height="31" viewBox="0 0 67 31" fill="none" xmlns="http://www.w3.org/2000/svg">
<path d="M54.3145 1C50.1411 1 46.3155 3.19718 44.229 6.78204C42.1423 10.3669 42.0263 14.7613 44.113 18.3461L43.4174 19.5026C42.8377 20.5433 42.0263 21.5841 41.0989 22.3935L37.2735 26.2098C36.4619 27.0192 36.4619 28.1757 37.2735 28.9851L37.9689 29.679C38.7805 30.4884 39.9396 30.4884 40.7512 29.679L44.5767 25.8627C45.5041 24.9376 46.4314 24.2439 47.4748 23.55L48.6341 22.8561C52.9232 25.2845 58.2559 24.7065 61.9654 21.4684C65.6751 18.2306 67.0661 13.1423 65.3273 8.51667C63.5884 3.89102 59.1833 1 54.3145 1ZM47.0111 22.6249C45.8518 23.3186 44.8086 24.1282 43.8811 25.0533L40.0556 28.8694C39.7079 29.2165 39.0123 29.2165 38.6645 28.8694L37.9689 28.1757C37.6212 27.8286 37.6212 27.1349 37.9689 26.7879L41.7946 22.9718C42.7219 22.0467 43.5333 21.0059 44.229 19.8494L44.6927 19.2712C45.5041 20.4276 46.5474 21.4684 47.7067 22.2779L47.0111 22.6249ZM54.3145 23.3186C48.4021 23.3186 43.5333 18.5775 43.5333 12.5641C43.5333 6.55077 48.2864 1.80949 54.3145 1.80949C60.3424 1.80949 65.0954 6.55077 65.0954 12.5641C65.0954 18.5775 60.2266 23.3186 54.3145 23.3186Z" fill="#00425A" stroke="#00425A" stroke-width="0.17"/>
<path d="M54.3144 2.85027C48.9819 2.85027 44.5768 7.24462 44.5768 12.5641C44.5768 17.8835 48.9819 22.2779 54.3144 22.2779C59.6471 22.2779 64.0522 17.8835 64.0522 12.5641C64.0522 7.24462 59.763 2.85027 54.3144 2.85027ZM54.3144 21.3528C49.4456 21.3528 45.5042 17.421 45.5042 12.5641C45.5042 7.70719 49.4456 3.7754 54.3144 3.7754C59.1834 3.7754 63.1248 7.70719 63.1248 12.5641C63.1248 17.421 59.1834 21.3528 54.3144 21.3528Z" fill="#00425A" stroke="#00425A" stroke-width="0.17"/>
<path d="M40.1716 26.0941L39.1282 27.1349C39.0123 27.2504 38.8963 27.4818 39.0123 27.5975C39.0123 27.7131 39.2442 27.9443 39.36 27.9443C39.476 27.9443 39.7079 27.9443 39.8237 27.8286L40.867 26.7879C41.099 26.5567 41.099 26.3253 40.867 26.0941C40.6353 25.9784 40.2874 25.9784 40.1716 26.0941Z" fill="#00425A" stroke="#00425A" stroke-width="0.17"/>
<path d="M45.1564 21.1216L44.9245 21.3528C44.6928 21.4684 44.6927 21.6998 44.6927 21.8153C44.6927 21.931 44.9245 22.1624 45.0405 22.1624C45.1564 22.1624 45.3882 22.1624 45.5042 22.0467L45.8519 21.8153C46.0838 21.5841 46.0838 21.3528 45.8519 21.1216C45.6201 20.8902 45.2724 21.0059 45.1564 21.1216Z" fill="#00425A" stroke="#00425A" stroke-width="0.17"/>
<path d="M53.1552 8.28539C51.6482 8.28539 50.4889 9.4418 50.4889 10.9451C50.4889 12.4485 51.6482 13.6049 53.1552 13.6049C54.6623 13.6049 55.8214 12.4485 55.8214 10.9451C55.8214 9.4418 54.6623 8.28539 53.1552 8.28539ZM53.1552 12.6797C52.2279 12.6797 51.4163 11.8703 51.4163 10.9451C51.4163 10.02 52.2279 9.21052 53.1552 9.21052C54.0826 9.21052 54.894 10.02 54.894 10.9451C54.894 11.8703 54.0826 12.6797 53.1552 12.6797Z" fill="#00425A" stroke="#00425A" stroke-width="0.17"/>
<path d="M59.0674 12.3328C58.8355 12.5641 58.6037 12.7954 58.3718 13.1423C58.6037 12.6797 58.7197 12.1015 58.8355 11.5233C58.8355 9.67308 57.7921 7.82283 56.1693 7.01334C55.01 6.20385 53.8507 6.31949 52.8073 6.31949H52.6916C51.88 6.31949 51.0686 6.43512 50.2572 6.78204C49.5615 7.24461 49.0979 7.82283 48.7501 8.51667C48.6342 8.74794 48.4022 8.97924 48.1705 9.21051C47.8226 9.55743 47.4749 10.02 47.2431 10.5982C46.8952 11.639 47.4749 12.4485 47.9385 13.0267L48.0545 13.2579C48.2863 13.6049 48.5182 14.0674 48.7501 14.4144C48.8659 14.53 48.8659 14.6456 48.9819 14.7613C49.0979 14.9926 49.2138 15.3395 49.4456 15.5708C50.2572 16.6115 51.4163 16.4959 52.3437 16.3803C52.6916 16.3803 53.0393 16.2646 53.271 16.2646C53.0393 16.3803 52.6916 16.4959 52.4596 16.4959C51.764 16.6115 51.3003 17.1897 51.0686 17.7679C50.8366 18.4618 51.0686 19.1557 51.5323 19.6182C51.9959 20.0808 52.6916 20.312 53.387 20.0808C56.749 19.1557 59.647 17.3054 61.8495 14.6456C62.3132 14.1831 62.4292 13.4892 62.1974 12.7954C61.9655 12.1015 61.3858 11.639 60.8062 11.5233C60.1107 11.5233 59.4151 11.7546 59.0674 12.3328ZM54.0826 15.3395C53.9667 15.3395 53.7349 15.2238 53.6189 15.2238C53.1553 15.2238 52.5756 15.2238 52.1119 15.3395C51.1845 15.4551 50.4889 15.5708 50.1412 14.8769C50.0252 14.6456 49.9093 14.53 49.7933 14.2987C49.6775 14.1831 49.6775 13.9518 49.5615 13.8361C49.3296 13.4892 49.0979 13.0267 48.7501 12.5641L48.6342 12.3328C48.1705 11.7546 47.9385 11.292 48.0545 10.8295C48.1705 10.4826 48.5182 10.1356 48.7501 9.78871C48.9819 9.55743 49.2138 9.32616 49.4456 8.97924C49.6775 8.40102 50.1412 7.93845 50.6049 7.59153C51.1845 7.36026 51.88 7.12898 52.5756 7.24461H52.6916C53.7349 7.24461 54.7781 7.24461 55.5897 7.59153C56.9807 8.28538 57.7921 9.67308 57.7921 11.292C57.6763 11.9859 57.4444 12.5641 57.0967 13.2579L56.9807 13.6049C56.8647 13.9518 56.633 14.2987 56.4011 14.6456C55.9374 14.9926 55.4737 15.2238 54.894 15.5708C54.6623 15.4551 54.4303 15.4551 54.0826 15.3395ZM61.0381 12.7954C61.1541 12.911 61.1541 12.911 61.27 13.0267C61.5018 13.3736 61.5018 13.8361 61.1541 14.0674C59.0674 16.4959 56.2851 18.3461 53.1553 19.1557C52.6916 19.2712 52.2279 19.04 52.1119 18.5775C51.9959 18.1149 52.2279 17.6524 52.6916 17.5367C53.6189 17.3054 54.4303 16.9585 55.3577 16.4959H55.4737C56.0533 16.149 56.633 15.9177 57.0967 15.4551C57.0967 15.4551 57.0967 15.4551 57.2126 15.4551C58.256 14.7613 59.0674 13.9518 59.8788 13.0267C60.1107 12.5641 60.6904 12.5641 61.0381 12.7954Z" fill="#00425A" stroke="#00425A" stroke-width="0.17"/>
<path d="M8.95027 1C9.1218 1 9.20757 1.0489 9.20757 1.14667C9.20757 1.24444 9.14017 1.31777 9.00541 1.36667C8.95639 1.3789 8.88288 1.40333 8.78486 1.44C8.68685 1.47667 8.6072 1.50723 8.54595 1.53167C8.48469 1.54389 8.4173 1.56833 8.34378 1.605C8.28253 1.64167 8.23351 1.68444 8.19676 1.73333C8.16 1.77 8.14162 1.81277 8.14162 1.86167V12.99C8.14162 13.0633 8.17838 13.1306 8.25189 13.1917C8.32541 13.2406 8.45405 13.2956 8.63784 13.3567C8.82162 13.4178 8.93189 13.4544 8.96865 13.4667C9.12793 13.5278 9.20757 13.6072 9.20757 13.705C9.20757 13.7906 9.1218 13.8333 8.95027 13.8333H4.99892C4.85189 13.8333 4.76612 13.7906 4.74162 13.705C4.74162 13.6194 4.81514 13.5461 4.96216 13.485C5.01118 13.4606 5.07855 13.4361 5.16432 13.4117C5.2501 13.375 5.31747 13.3444 5.36649 13.32C5.42774 13.2956 5.48902 13.2711 5.55027 13.2467C5.61153 13.21 5.65442 13.1733 5.67892 13.1367C5.71568 13.0878 5.73405 13.0389 5.73405 12.99L5.77081 2.57667C5.77081 2.41777 5.68504 2.33833 5.51351 2.33833H3.67568C3.51639 2.33833 3.43676 2.41777 3.43676 2.57667L3.4 12.99C3.4 13.0633 3.43676 13.1306 3.51027 13.1917C3.59604 13.2406 3.73081 13.2956 3.9146 13.3567C4.09838 13.4178 4.20865 13.4606 4.24541 13.485C4.39243 13.5339 4.46595 13.6072 4.46595 13.705C4.46595 13.7906 4.37405 13.8333 4.19027 13.8333H0.257297C0.0857658 13.8333 0 13.7906 0 13.705C0 13.6072 0.0673874 13.5339 0.202162 13.485C0.251172 13.4606 0.318558 13.4361 0.404324 13.4117C0.502342 13.375 0.575855 13.3444 0.624865 13.32C0.686126 13.2956 0.747388 13.2711 0.808649 13.2467C0.869909 13.21 0.912793 13.1733 0.937297 13.1367C0.974054 13.0878 0.992432 13.0389 0.992432 12.99V1.86167C0.992432 1.825 0.98018 1.79444 0.955676 1.77C0.943423 1.73333 0.918919 1.70277 0.882162 1.67833C0.857658 1.64167 0.827027 1.61723 0.79027 1.605C0.753514 1.58056 0.704504 1.5561 0.643243 1.53167C0.594234 1.50723 0.551351 1.48889 0.514595 1.47667C0.477838 1.46444 0.422703 1.44611 0.349189 1.42167C0.287929 1.39723 0.238919 1.3789 0.202162 1.36667C0.0673874 1.31777 0 1.24444 0 1.14667C0 1.0489 0.0857658 1 0.257297 1H8.95027ZM9.38661 8.11333C9.38661 7.51444 9.454 6.89723 9.58877 6.26167C9.7358 5.6261 9.95022 5.00889 10.232 4.41C10.5138 3.8111 10.912 3.3161 11.4266 2.925C11.9412 2.53389 12.5232 2.33833 13.1726 2.33833C13.8342 2.33833 14.4162 2.54 14.9185 2.94333C15.4331 3.33444 15.8252 3.83556 16.0947 4.44667C16.3765 5.05777 16.5848 5.68111 16.7196 6.31667C16.8666 6.94 16.9401 7.545 16.9401 8.13167C16.9401 8.7061 16.8727 9.31111 16.738 9.94667C16.6155 10.5822 16.4194 11.2178 16.1499 11.8533C15.8803 12.4889 15.4882 13.0144 14.9736 13.43C14.459 13.8333 13.8648 14.035 13.1909 14.035C12.5293 14.035 11.9351 13.8333 11.4082 13.43C10.8936 13.0267 10.4955 12.5133 10.2136 11.89C9.93184 11.2544 9.72356 10.6189 9.58877 9.98333C9.454 9.33556 9.38661 8.71223 9.38661 8.11333ZM13.1909 13.3383C13.6933 13.3383 14.0731 12.8067 14.3304 11.7433C14.5877 10.6678 14.7163 9.4089 14.7163 7.96667C14.7286 6.59777 14.6 5.44277 14.3304 4.50167C14.0731 3.56056 13.6872 3.09 13.1726 3.09C12.6702 3.10223 12.2843 3.5789 12.0147 4.52C11.7574 5.4489 11.6288 6.59777 11.6288 7.96667C11.6288 9.39667 11.7574 10.6494 12.0147 11.725C12.2843 12.8006 12.6763 13.3383 13.1909 13.3383ZM20.1173 13.1C20.1173 13.1733 20.1478 13.2283 20.2092 13.265C20.2827 13.3139 20.3991 13.3628 20.5584 13.4117C20.7299 13.4606 20.8341 13.4972 20.8709 13.5217C20.9933 13.5706 21.0546 13.6378 21.0546 13.7233C21.0546 13.7967 20.9749 13.8333 20.8157 13.8333H17.3605C17.2013 13.8333 17.1216 13.7967 17.1216 13.7233C17.1216 13.65 17.1829 13.5828 17.3054 13.5217C17.4524 13.4483 17.6056 13.3933 17.7649 13.3567C17.9241 13.3078 18.0038 13.2222 18.0038 13.1V3.29167C18.0038 3.18167 17.9241 3.0961 17.7649 3.035C17.6178 2.97389 17.4647 2.9189 17.3054 2.87C17.1829 2.82111 17.1216 2.75389 17.1216 2.66833C17.1216 2.58277 17.2013 2.54 17.3605 2.54H20.8157C20.9504 2.54 21.03 2.58277 21.0546 2.66833C21.0546 2.75389 20.9933 2.82111 20.8709 2.87C20.7238 2.89444 20.5584 2.94944 20.3746 3.035C20.203 3.10833 20.1173 3.1939 20.1173 3.29167V13.1ZM22.1757 3.29167C22.1879 3.24277 22.1695 3.2 22.1206 3.16333C22.0715 3.11444 22.0103 3.07777 21.9368 3.05333C21.8754 3.01667 21.8019 2.9861 21.7163 2.96167C21.6304 2.925 21.5569 2.89444 21.4957 2.87C21.3608 2.82111 21.2936 2.75389 21.2936 2.66833C21.2936 2.58277 21.3731 2.54 21.5325 2.54H25.006C25.1651 2.54 25.2449 2.58277 25.2449 2.66833C25.2449 2.75389 25.1835 2.82111 25.0611 2.87C24.9018 2.90667 24.7303 2.96167 24.5465 3.035C24.3749 3.10833 24.2892 3.1939 24.2892 3.29167V13.1C24.2892 13.1733 24.326 13.2283 24.3995 13.265C24.4607 13.3139 24.571 13.3689 24.7303 13.43C24.8895 13.4789 24.9876 13.5033 25.0244 13.5033C25.1591 13.5522 25.2265 13.6256 25.2265 13.7233C25.2265 13.7967 25.153 13.8333 25.006 13.8333H21.5325C21.3854 13.8333 21.3057 13.7967 21.2936 13.7233C21.2936 13.65 21.3608 13.5828 21.4957 13.5217C21.6304 13.4483 21.7775 13.3933 21.9368 13.3567C22.096 13.3078 22.1757 13.2222 22.1757 13.1V3.29167ZM18.7941 12.9717L22.4514 3.27333L23.3152 4.00667L19.6763 13.595L18.7941 12.9717ZM31.7176 8.92C32.1098 9.37223 32.3057 9.97111 32.3057 10.7167C32.3057 11.5722 32.0484 12.3422 31.5338 13.0267C31.0315 13.6989 30.376 14.035 29.5673 14.035C28.8813 14.035 28.2625 13.8578 27.7111 13.5033C27.1598 13.1367 26.7249 12.6661 26.4062 12.0917C26.0877 11.5172 25.8365 10.9122 25.6527 10.2767C25.4813 9.64111 25.3954 9.01167 25.3954 8.38833C25.3954 6.775 25.8733 5.37556 26.8289 4.19C27.7969 3.00444 28.9855 2.38723 30.3943 2.33833C30.5169 2.33833 30.5965 2.35056 30.6333 2.375C30.67 2.38723 30.7068 2.44223 30.7435 2.54L31.1111 3.75C31.1357 3.83556 31.1479 3.88444 31.1479 3.89667C31.1479 4.00667 31.105 4.06167 31.0192 4.06167C30.9457 4.06167 30.8784 4.01277 30.8171 3.915C30.6088 3.59723 30.3148 3.43833 29.9349 3.43833C29.4571 3.43833 29.0527 3.62777 28.7219 4.00667C28.3911 4.38556 28.1584 4.88056 28.0235 5.49167C27.8888 6.09056 27.7909 6.64056 27.7295 7.14167C27.6806 7.63056 27.656 8.13167 27.656 8.645C27.656 9.31723 27.705 9.92833 27.803 10.4783C27.9011 11.0283 28.0235 11.4622 28.1706 11.78C28.3176 12.0978 28.4769 12.3667 28.6484 12.5867C28.8322 12.7944 28.9976 12.935 29.1446 13.0083C29.2916 13.0817 29.4265 13.1183 29.5489 13.1183C29.8553 13.1183 30.1126 13.0083 30.3208 12.7883C30.5414 12.5561 30.6947 12.275 30.7803 11.945C30.8661 11.6028 30.9213 11.3217 30.9457 11.1017C30.9825 10.8694 31.0008 10.6678 31.0008 10.4967C31.0008 9.7511 30.8968 9.23167 30.6884 8.93833C30.664 8.88944 30.6516 8.84056 30.6516 8.79167C30.6516 8.70611 30.6823 8.63889 30.7435 8.59C30.817 8.52889 30.8968 8.49833 30.9825 8.49833C31.203 8.49833 31.4482 8.6389 31.7176 8.92ZM33.349 13.1V3.29167C33.349 3.18167 33.202 3.07167 32.908 2.96167C32.6139 2.85167 32.4669 2.76 32.4669 2.68667C32.4669 2.58889 32.5465 2.54 32.7058 2.54H36.1609C36.3201 2.54 36.3999 2.58277 36.3999 2.66833C36.3999 2.75389 36.2405 2.85777 35.922 2.98C35.6033 3.09 35.4442 3.1939 35.4442 3.29167V6.13333C35.4442 6.2189 35.4626 6.26167 35.4993 6.26167C35.5114 6.26167 35.5361 6.24333 35.5728 6.20667L37.4474 3.54833C37.5331 3.43833 37.5761 3.32833 37.5761 3.21833C37.5761 3.05944 37.4842 2.94333 37.3004 2.87C37.1287 2.78444 37.0431 2.71723 37.0431 2.66833C37.0431 2.58277 37.1043 2.54 37.2269 2.54H39.5977C39.7201 2.54 39.7815 2.58277 39.7815 2.66833C39.7815 2.71723 39.7201 2.76611 39.5977 2.815C39.4751 2.85167 39.322 2.91277 39.1382 2.99833C38.9544 3.07167 38.8135 3.16944 38.7155 3.29167L37.8885 4.33667L39.5058 12.9167C39.5426 13.1122 39.6589 13.2528 39.855 13.3383C40.0632 13.4239 40.2593 13.485 40.4431 13.5217C40.6269 13.5583 40.7188 13.6072 40.7188 13.6683C40.7188 13.7783 40.6453 13.8333 40.4982 13.8333H36.8042C36.6816 13.8333 36.6204 13.7906 36.6204 13.705C36.6204 13.6439 36.7367 13.5522 36.9696 13.43C37.2023 13.3078 37.3188 13.1733 37.3188 13.0267C37.3188 13.0022 37.3125 12.9717 37.3004 12.935C37.3004 12.8861 37.3004 12.8556 37.3004 12.8433L36.3631 7.17833C36.3385 7.06833 36.2956 7.01333 36.2344 7.01333C36.1977 7.01333 36.1547 7.05 36.1058 7.12333L35.4442 8.16833V13.1C35.4442 13.1978 35.6033 13.3078 35.922 13.43C36.2405 13.54 36.3999 13.6378 36.3999 13.7233C36.3999 13.7967 36.3263 13.8333 36.1793 13.8333H32.7058C32.5465 13.8333 32.4669 13.7906 32.4669 13.705C32.4669 13.6317 32.6139 13.54 32.908 13.43C33.202 13.3078 33.349 13.1978 33.349 13.1ZM3.38162 20.5433L3.69405 20.525C4.04936 20.525 4.44757 20.6167 4.88865 20.8C5.32973 20.9711 5.77693 21.24 6.23027 21.6067C6.68361 21.9611 7.06342 22.4744 7.36973 23.1467C7.67604 23.819 7.82919 24.589 7.82919 25.4567C7.82919 26.5323 7.56577 27.449 7.03892 28.2067C6.52432 28.9644 5.87496 29.5083 5.09081 29.8383C4.31892 30.1683 3.46739 30.3333 2.53622 30.3333H0.257297C0.0857658 30.3333 0 30.2844 0 30.1867C0 30.089 0.15928 29.985 0.477838 29.875C0.808649 29.7527 0.974054 29.6 0.974054 29.4167V18.3433C0.974054 18.1967 0.808649 18.056 0.477838 17.9217C0.15928 17.7994 0 17.6894 0 17.5917C0 17.4939 0.0796396 17.445 0.238919 17.445H6.12C6.26703 17.445 6.4018 17.3961 6.52432 17.2983C6.56108 17.2617 6.59784 17.2433 6.6346 17.2433C6.72037 17.2433 6.7755 17.3106 6.8 17.445L7.0573 19.3883C7.0573 19.4739 7.02054 19.5167 6.94703 19.5167C6.91027 19.5167 6.87351 19.4983 6.83676 19.4617L6.26703 18.9117C6.16902 18.814 6.04037 18.765 5.88108 18.765H3.52865C3.43064 18.765 3.38162 18.8077 3.38162 18.8933V20.5433ZM3.47351 29.38C3.8901 29.38 4.23929 29.215 4.52108 28.885C4.81514 28.5427 5.0173 28.115 5.12757 27.6017C5.23784 27.0761 5.31135 26.6483 5.34811 26.3183C5.38487 25.9761 5.40324 25.6644 5.40324 25.3833C5.40324 24.7111 5.35423 24.1183 5.25622 23.605C5.17044 23.0917 5.06631 22.7067 4.94378 22.45C4.82126 22.1811 4.67423 21.9673 4.5027 21.8083C4.34342 21.6494 4.20253 21.5517 4.08 21.515C3.96973 21.466 3.85334 21.4417 3.73081 21.4417C3.57153 21.4417 3.46126 21.466 3.4 21.515V29.38H3.47351ZM11.3768 29.6C11.3768 29.6733 11.4074 29.7283 11.4687 29.765C11.5422 29.814 11.6586 29.8627 11.8179 29.9117C11.9894 29.9606 12.0935 29.9973 12.1303 30.0217C12.2528 30.0706 12.3141 30.1377 12.3141 30.2233C12.3141 30.2967 12.2344 30.3333 12.0752 30.3333H8.62003C8.46076 30.3333 8.38111 30.2967 8.38111 30.2233C8.38111 30.15 8.44238 30.0827 8.56489 30.0217C8.71192 29.9483 8.86509 29.8933 9.02435 29.8567C9.18364 29.8077 9.26327 29.7223 9.26327 29.6V19.7917C9.26327 19.6817 9.18364 19.596 9.02435 19.535C8.87733 19.4739 8.72418 19.419 8.56489 19.37C8.44238 19.3211 8.38111 19.254 8.38111 19.1683C8.38111 19.0827 8.46076 19.04 8.62003 19.04H12.0752C12.21 19.04 12.2896 19.0827 12.3141 19.1683C12.3141 19.254 12.2528 19.3211 12.1303 19.37C11.9833 19.3944 11.8179 19.4494 11.6341 19.535C11.4626 19.6083 11.3768 19.694 11.3768 19.7917V29.6ZM13.4352 19.7917C13.4474 19.7427 13.429 19.7 13.38 19.6633C13.331 19.6144 13.2698 19.5777 13.1962 19.5533C13.135 19.5167 13.0615 19.486 12.9757 19.4617C12.89 19.425 12.8164 19.3944 12.7552 19.37C12.6204 19.3211 12.553 19.254 12.553 19.1683C12.553 19.0827 12.6327 19.04 12.7919 19.04H16.2654C16.4247 19.04 16.5044 19.0827 16.5044 19.1683C16.5044 19.254 16.4431 19.3211 16.3206 19.37C16.1613 19.4067 15.9898 19.4617 15.806 19.535C15.6344 19.6083 15.5487 19.694 15.5487 19.7917V29.6C15.5487 29.6733 15.5854 29.7283 15.6589 29.765C15.7202 29.814 15.8305 29.869 15.9898 29.93C16.149 29.979 16.2471 30.0033 16.2838 30.0033C16.4186 30.0523 16.486 30.1256 16.486 30.2233C16.486 30.2967 16.4125 30.3333 16.2654 30.3333H12.7919C12.6449 30.3333 12.5653 30.2967 12.553 30.2233C12.553 30.15 12.6204 30.0827 12.7552 30.0217C12.89 29.9483 13.037 29.8933 13.1962 29.8567C13.3555 29.8077 13.4352 29.7223 13.4352 29.6V19.7917ZM10.0535 29.4717L13.7108 19.7733L14.5746 20.5067L10.9357 30.095L10.0535 29.4717ZM22.9772 25.42C23.3692 25.8723 23.5653 26.4711 23.5653 27.2167C23.5653 28.0723 23.308 28.8423 22.7934 29.5267C22.291 30.1989 21.6356 30.535 20.8269 30.535C20.1407 30.535 19.5221 30.3577 18.9707 30.0033C18.4194 29.6367 17.9843 29.166 17.6658 28.5917C17.3472 28.0173 17.0961 27.4123 16.9123 26.7767C16.7407 26.1411 16.655 25.5117 16.655 24.8883C16.655 23.275 17.1328 21.8756 18.0885 20.69C19.0564 19.5044 20.2449 18.8873 21.654 18.8383C21.7764 18.8383 21.8561 18.8506 21.8929 18.875C21.9296 18.8873 21.9664 18.9423 22.0031 19.04L22.3707 20.25C22.3952 20.3356 22.4075 20.3844 22.4075 20.3967C22.4075 20.5067 22.3645 20.5617 22.2788 20.5617C22.2053 20.5617 22.1379 20.5127 22.0767 20.415C21.8682 20.0973 21.5742 19.9383 21.1945 19.9383C20.7167 19.9383 20.3123 20.1277 19.9815 20.5067C19.6507 20.8856 19.4179 21.3806 19.2831 21.9917C19.1482 22.5906 19.0503 23.1406 18.9891 23.6417C18.94 24.1306 18.9156 24.6317 18.9156 25.145C18.9156 25.8173 18.9645 26.4283 19.0626 26.9783C19.1606 27.5283 19.2831 27.9623 19.4302 28.28C19.5772 28.5977 19.7364 28.8667 19.908 29.0867C20.0918 29.2944 20.2572 29.435 20.4042 29.5083C20.5513 29.5817 20.686 29.6183 20.8086 29.6183C21.1147 29.6183 21.372 29.5083 21.5804 29.2883C21.801 29.0561 21.9541 28.775 22.0399 28.445C22.1255 28.1027 22.1807 27.8217 22.2053 27.6017C22.2421 27.3694 22.2604 27.1677 22.2604 26.9967C22.2604 26.2511 22.1562 25.7317 21.948 25.4383C21.9234 25.3894 21.9113 25.3406 21.9113 25.2917C21.9113 25.2061 21.9418 25.139 22.0031 25.09C22.0767 25.029 22.1562 24.9983 22.2421 24.9983C22.4626 24.9983 22.7076 25.1389 22.9772 25.42ZM24.6085 29.6V19.7917C24.6085 19.6817 24.4614 19.5717 24.1674 19.4617C23.8733 19.3517 23.7263 19.26 23.7263 19.1867C23.7263 19.089 23.8061 19.04 23.9652 19.04H27.4204C27.5797 19.04 27.6593 19.0827 27.6593 19.1683C27.6593 19.254 27.5001 19.3577 27.1814 19.48C26.8629 19.59 26.7036 19.694 26.7036 19.7917V22.6333C26.7036 22.719 26.722 22.7617 26.7587 22.7617C26.7711 22.7617 26.7955 22.7433 26.8323 22.7067L28.7068 20.0483C28.7927 19.9383 28.8355 19.8283 28.8355 19.7183C28.8355 19.5594 28.7436 19.4433 28.5598 19.37C28.3883 19.2844 28.3025 19.2173 28.3025 19.1683C28.3025 19.0827 28.3639 19.04 28.4863 19.04H30.8571C30.9797 19.04 31.0409 19.0827 31.0409 19.1683C31.0409 19.2173 30.9797 19.266 30.8571 19.315C30.7347 19.3517 30.5814 19.4127 30.3977 19.4983C30.2139 19.5717 30.0731 19.6694 29.975 19.7917L29.1479 20.8367L30.7652 29.4167C30.802 29.6123 30.9185 29.7527 31.1144 29.8383C31.3228 29.9239 31.5187 29.985 31.7025 30.0217C31.8863 30.0583 31.9782 30.1073 31.9782 30.1683C31.9782 30.2783 31.9047 30.3333 31.7577 30.3333H28.0636C27.9412 30.3333 27.8798 30.2906 27.8798 30.205C27.8798 30.144 27.9963 30.0523 28.229 29.93C28.4619 29.8077 28.5782 29.6733 28.5782 29.5267C28.5782 29.5023 28.5721 29.4717 28.5598 29.435C28.5598 29.3861 28.5598 29.3556 28.5598 29.3433L27.6225 23.6783C27.5981 23.5683 27.5553 23.5133 27.4939 23.5133C27.4571 23.5133 27.4143 23.55 27.3652 23.6233L26.7036 24.6683V29.6C26.7036 29.6977 26.8629 29.8077 27.1814 29.93C27.5001 30.04 27.6593 30.1377 27.6593 30.2233C27.6593 30.2967 27.5858 30.3333 27.4387 30.3333H23.9652C23.8061 30.3333 23.7263 30.2906 23.7263 30.205C23.7263 30.1317 23.8733 30.04 24.1674 29.93C24.4614 29.8077 24.6085 29.6977 24.6085 29.6Z" fill="#00425A"/>
</svg>
