<svg width="67" height="31" viewBox="0 0 67 31" fill="none" xmlns="http://www.w3.org/2000/svg">
<path d="M54.4064 0.833328C50.233 0.833328 46.4074 3.03051 44.3209 6.61537C42.2342 10.2003 42.1182 14.5946 44.2049 18.1794L43.5093 19.3359C42.9296 20.3767 42.1182 21.4174 41.1909 22.2269L37.3654 26.0431C36.5538 26.8525 36.5538 28.009 37.3654 28.8184L38.0608 29.5123C38.8724 30.3218 40.0316 30.3218 40.8431 29.5123L44.6686 25.6961C45.596 24.771 46.5234 24.0772 47.5667 23.3833L48.726 22.6894C53.0151 25.1178 58.3478 24.5398 62.0573 21.3018C65.767 18.0639 67.158 12.9756 65.4193 8.35C63.6803 3.72435 59.2752 0.833328 54.4064 0.833328ZM47.103 22.4582C45.9437 23.152 44.9005 23.9616 43.973 24.8867L40.1475 28.7027C39.7998 29.0498 39.1042 29.0498 38.7565 28.7027L38.0608 28.009C37.7131 27.662 37.7131 26.9682 38.0608 26.6212L41.8865 22.8051C42.8139 21.88 43.6253 20.8392 44.3209 19.6827L44.7846 19.1045C45.596 20.261 46.6393 21.3018 47.7986 22.1112L47.103 22.4582ZM54.4064 23.152C48.4941 23.152 43.6253 18.4108 43.6253 12.3974C43.6253 6.38409 48.3783 1.64282 54.4064 1.64282C60.4343 1.64282 65.1873 6.38409 65.1873 12.3974C65.1873 18.4108 60.3185 23.152 54.4064 23.152Z" fill="#00425A" stroke="#00425A" stroke-width="0.17"/>
<path d="M54.4063 2.68359C49.0738 2.68359 44.6687 7.07795 44.6687 12.3974C44.6687 17.7169 49.0738 22.1112 54.4063 22.1112C59.739 22.1112 64.1441 17.7169 64.1441 12.3974C64.1441 7.07795 59.8549 2.68359 54.4063 2.68359ZM54.4063 21.1861C49.5375 21.1861 45.5961 17.2544 45.5961 12.3974C45.5961 7.54052 49.5375 3.60873 54.4063 3.60873C59.2753 3.60873 63.2167 7.54052 63.2167 12.3974C63.2167 17.2544 59.2753 21.1861 54.4063 21.1861Z" fill="#00425A" stroke="#00425A" stroke-width="0.17"/>
<path d="M40.2635 25.9274L39.2202 26.9682C39.1042 27.0837 38.9882 27.3151 39.1042 27.4308C39.1042 27.5465 39.3361 27.7776 39.4519 27.7776C39.5679 27.7776 39.7998 27.7776 39.9156 27.662L40.9589 26.6212C41.1909 26.39 41.1909 26.1586 40.9589 25.9274C40.7272 25.8118 40.3793 25.8118 40.2635 25.9274Z" fill="#00425A" stroke="#00425A" stroke-width="0.17"/>
<path d="M45.2484 20.9549L45.0164 21.1861C44.7847 21.3018 44.7847 21.5331 44.7847 21.6486C44.7847 21.7643 45.0164 21.9957 45.1324 21.9957C45.2484 21.9957 45.4801 21.9957 45.5961 21.88L45.9438 21.6486C46.1757 21.4174 46.1757 21.1861 45.9438 20.9549C45.712 20.7235 45.3643 20.8392 45.2484 20.9549Z" fill="#00425A" stroke="#00425A" stroke-width="0.17"/>
<path d="M53.2471 8.11871C51.7401 8.11871 50.5808 9.27512 50.5808 10.7785C50.5808 12.2818 51.7401 13.4382 53.2471 13.4382C54.7542 13.4382 55.9133 12.2818 55.9133 10.7785C55.9133 9.27512 54.7542 8.11871 53.2471 8.11871ZM53.2471 12.5131C52.3198 12.5131 51.5082 11.7036 51.5082 10.7785C51.5082 9.85334 52.3198 9.04385 53.2471 9.04385C54.1745 9.04385 54.9859 9.85334 54.9859 10.7785C54.9859 11.7036 54.1745 12.5131 53.2471 12.5131Z" fill="#00425A" stroke="#00425A" stroke-width="0.17"/>
<path d="M59.1593 12.1661C58.9274 12.3974 58.6956 12.6287 58.4637 12.9756C58.6956 12.5131 58.8116 11.9349 58.9274 11.3567C58.9274 9.50641 57.884 7.65615 56.2612 6.84666C55.1019 6.03717 53.9426 6.15282 52.8993 6.15282H52.7835C51.9719 6.15282 51.1605 6.26845 50.3491 6.61537C49.6535 7.07794 49.1898 7.65615 48.8421 8.35C48.7261 8.58127 48.4942 8.81257 48.2624 9.04384C47.9145 9.39076 47.5668 9.85333 47.335 10.4315C46.9871 11.4723 47.5668 12.2818 48.0305 12.86L48.1464 13.0913C48.3782 13.4382 48.6101 13.9008 48.8421 14.2477C48.9578 14.3633 48.9578 14.479 49.0738 14.5946C49.1898 14.8259 49.3057 15.1728 49.5375 15.4041C50.3491 16.4449 51.5082 16.3292 52.4356 16.2136C52.7835 16.2136 53.1312 16.0979 53.363 16.0979C53.1312 16.2136 52.7835 16.3292 52.5515 16.3292C51.8559 16.4449 51.3922 17.0231 51.1605 17.6012C50.9286 18.2951 51.1605 18.989 51.6242 19.4516C52.0879 19.9141 52.7835 20.1453 53.4789 19.9141C56.8409 18.989 59.739 17.1387 61.9414 14.479C62.4051 14.0164 62.5211 13.3225 62.2893 12.6287C62.0574 11.9349 61.4777 11.4723 60.8981 11.3567C60.2027 11.3567 59.507 11.5879 59.1593 12.1661ZM54.1745 15.1728C54.0586 15.1728 53.8268 15.0572 53.7109 15.0572C53.2472 15.0572 52.6675 15.0572 52.2038 15.1728C51.2765 15.2885 50.5808 15.4041 50.2331 14.7103C50.1171 14.479 50.0012 14.3633 49.8852 14.132C49.7694 14.0164 49.7694 13.7851 49.6535 13.6695C49.4215 13.3225 49.1898 12.86 48.8421 12.3974L48.7261 12.1661C48.2624 11.5879 48.0305 11.1254 48.1464 10.6628C48.2624 10.3159 48.6101 9.96896 48.8421 9.62204C49.0738 9.39076 49.3057 9.15949 49.5375 8.81257C49.7694 8.23435 50.2331 7.77178 50.6968 7.42486C51.2765 7.19359 51.9719 6.96231 52.6675 7.07794H52.7835C53.8268 7.07794 54.87 7.07794 55.6816 7.42486C57.0726 8.1187 57.884 9.50641 57.884 11.1254C57.7683 11.8192 57.5363 12.3974 57.1886 13.0913L57.0726 13.4382C56.9567 13.7851 56.7249 14.132 56.493 14.479C56.0293 14.8259 55.5656 15.0572 54.9859 15.4041C54.7542 15.2885 54.5223 15.2885 54.1745 15.1728ZM61.13 12.6287C61.246 12.7444 61.246 12.7444 61.362 12.86C61.5937 13.2069 61.5937 13.6695 61.246 13.9008C59.1593 16.3292 56.377 18.1794 53.2472 18.989C52.7835 19.1045 52.3198 18.8733 52.2038 18.4108C52.0879 17.9482 52.3198 17.4857 52.7835 17.37C53.7109 17.1387 54.5223 16.7918 55.4496 16.3292H55.5656C56.1453 15.9823 56.7249 15.751 57.1886 15.2885C57.1886 15.2885 57.1886 15.2885 57.3046 15.2885C58.3479 14.5946 59.1593 13.7851 59.9707 12.86C60.2026 12.3974 60.7823 12.3974 61.13 12.6287Z" fill="#00425A" stroke="#00425A" stroke-width="0.17"/>
<path d="M9.04219 0.833328C9.21371 0.833328 9.29949 0.882223 9.29949 0.979995C9.29949 1.07777 9.23209 1.1511 9.09732 1.2C9.04831 1.21222 8.9748 1.23666 8.87678 1.27333C8.77877 1.30999 8.69912 1.34056 8.63787 1.36499C8.57661 1.37722 8.50922 1.40166 8.4357 1.43833C8.37445 1.475 8.32543 1.51777 8.28868 1.56666C8.25192 1.60333 8.23354 1.6461 8.23354 1.69499V12.8233C8.23354 12.8967 8.2703 12.9639 8.34381 13.025C8.41732 13.0739 8.54597 13.1289 8.72976 13.19C8.91354 13.2511 9.02381 13.2878 9.06057 13.3C9.21985 13.3611 9.29949 13.4406 9.29949 13.5383C9.29949 13.6239 9.21371 13.6667 9.04219 13.6667H5.09084C4.94381 13.6667 4.85804 13.6239 4.83354 13.5383C4.83354 13.4528 4.90705 13.3794 5.05408 13.3183C5.1031 13.2939 5.17047 13.2694 5.25624 13.245C5.34202 13.2083 5.40939 13.1778 5.45841 13.1533C5.51966 13.1289 5.58093 13.1044 5.64219 13.08C5.70344 13.0433 5.74634 13.0067 5.77084 12.97C5.8076 12.9211 5.82597 12.8722 5.82597 12.8233L5.86273 2.40999C5.86273 2.2511 5.77696 2.17166 5.60543 2.17166H3.76759C3.60831 2.17166 3.52868 2.2511 3.52868 2.40999L3.49192 12.8233C3.49192 12.8967 3.52868 12.9639 3.60219 13.025C3.68796 13.0739 3.82273 13.1289 4.00651 13.19C4.1903 13.2511 4.30057 13.2939 4.33732 13.3183C4.48435 13.3672 4.55787 13.4406 4.55787 13.5383C4.55787 13.6239 4.46597 13.6667 4.28219 13.6667H0.349216C0.177685 13.6667 0.0919189 13.6239 0.0919189 13.5383C0.0919189 13.4406 0.159306 13.3672 0.294081 13.3183C0.343091 13.2939 0.410477 13.2694 0.496243 13.245C0.594261 13.2083 0.667774 13.1778 0.716784 13.1533C0.778044 13.1289 0.839307 13.1044 0.900568 13.08C0.961828 13.0433 1.00471 13.0067 1.02922 12.97C1.06597 12.9211 1.08435 12.8722 1.08435 12.8233V1.69499C1.08435 1.65833 1.0721 1.62777 1.04759 1.60333C1.03534 1.56666 1.01084 1.5361 0.974081 1.51166C0.949577 1.47499 0.918946 1.45056 0.882189 1.43833C0.845432 1.41389 0.796423 1.38943 0.735162 1.36499C0.686153 1.34056 0.64327 1.32222 0.606514 1.30999C0.569757 1.29777 0.514622 1.27943 0.441108 1.25499C0.379847 1.23056 0.330838 1.21222 0.294081 1.2C0.159306 1.1511 0.0919189 1.07777 0.0919189 0.979995C0.0919189 0.882223 0.177685 0.833328 0.349216 0.833328H9.04219ZM9.47853 7.94666C9.47853 7.34777 9.54592 6.73056 9.68069 6.095C9.82772 5.45943 10.0421 4.84222 10.3239 4.24333C10.6057 3.64443 11.0039 3.14943 11.5185 2.75833C12.0331 2.36722 12.6151 2.17166 13.2645 2.17166C13.9261 2.17166 14.5081 2.37333 15.0104 2.77666C15.525 3.16777 15.9171 3.66889 16.1866 4.28C16.4685 4.8911 16.6767 5.51443 16.8115 6.15C16.9585 6.77333 17.032 7.37833 17.032 7.96499C17.032 8.53943 16.9647 9.14443 16.8299 9.77999C16.7074 10.4156 16.5113 11.0511 16.2418 11.6867C15.9722 12.3222 15.5802 12.8478 15.0656 13.2633C14.551 13.6667 13.9567 13.8683 13.2829 13.8683C12.6212 13.8683 12.027 13.6667 11.5002 13.2633C10.9856 12.86 10.5874 12.3467 10.3056 11.7233C10.0238 11.0878 9.81548 10.4522 9.68069 9.81666C9.54592 9.16889 9.47853 8.54556 9.47853 7.94666ZM13.2829 13.1717C13.7852 13.1717 14.165 12.64 14.4223 11.5767C14.6796 10.5011 14.8083 9.24222 14.8083 7.8C14.8205 6.4311 14.6919 5.2761 14.4223 4.335C14.165 3.39389 13.7791 2.92333 13.2645 2.92333C12.7621 2.93556 12.3762 3.41222 12.1066 4.35333C11.8493 5.28222 11.7207 6.4311 11.7207 7.8C11.7207 9.23 11.8493 10.4828 12.1066 11.5583C12.3762 12.6339 12.7683 13.1717 13.2829 13.1717ZM20.2093 12.9333C20.2093 13.0067 20.2398 13.0617 20.3012 13.0983C20.3747 13.1472 20.491 13.1961 20.6503 13.245C20.8218 13.2939 20.926 13.3306 20.9628 13.355C21.0852 13.4039 21.1466 13.4711 21.1466 13.5567C21.1466 13.63 21.0668 13.6667 20.9076 13.6667H17.4524C17.2932 13.6667 17.2135 13.63 17.2135 13.5567C17.2135 13.4833 17.2748 13.4161 17.3973 13.355C17.5443 13.2817 17.6975 13.2267 17.8568 13.19C18.0161 13.1411 18.0957 13.0556 18.0957 12.9333V3.12499C18.0957 3.01499 18.0161 2.92943 17.8568 2.86833C17.7097 2.80722 17.5566 2.75222 17.3973 2.70333C17.2748 2.65443 17.2135 2.58722 17.2135 2.50166C17.2135 2.4161 17.2932 2.37333 17.4524 2.37333H20.9076C21.0424 2.37333 21.1219 2.4161 21.1466 2.50166C21.1466 2.58722 21.0852 2.65443 20.9628 2.70333C20.8157 2.72777 20.6503 2.78277 20.4666 2.86833C20.2949 2.94166 20.2093 3.02722 20.2093 3.12499V12.9333ZM22.2676 3.12499C22.2798 3.0761 22.2614 3.03333 22.2125 2.99666C22.1634 2.94777 22.1022 2.9111 22.0287 2.88666C21.9673 2.84999 21.8938 2.81943 21.8082 2.79499C21.7224 2.75833 21.6488 2.72777 21.5876 2.70333C21.4527 2.65443 21.3855 2.58722 21.3855 2.50166C21.3855 2.4161 21.4651 2.37333 21.6244 2.37333H25.0979C25.2571 2.37333 25.3368 2.4161 25.3368 2.50166C25.3368 2.58722 25.2754 2.65443 25.153 2.70333C24.9937 2.73999 24.8222 2.79499 24.6385 2.86833C24.4668 2.94166 24.3812 3.02722 24.3812 3.12499V12.9333C24.3812 13.0067 24.4179 13.0617 24.4914 13.0983C24.5526 13.1472 24.6629 13.2022 24.8222 13.2633C24.9814 13.3122 25.0795 13.3367 25.1163 13.3367C25.251 13.3856 25.3185 13.4589 25.3185 13.5567C25.3185 13.63 25.2449 13.6667 25.0979 13.6667H21.6244C21.4774 13.6667 21.3976 13.63 21.3855 13.5567C21.3855 13.4833 21.4527 13.4161 21.5876 13.355C21.7224 13.2817 21.8694 13.2267 22.0287 13.19C22.1879 13.1411 22.2676 13.0556 22.2676 12.9333V3.12499ZM18.886 12.805L22.5433 3.10666L23.4071 3.84L19.7682 13.4283L18.886 12.805ZM31.8095 8.75333C32.2017 9.20556 32.3976 9.80443 32.3976 10.55C32.3976 11.4056 32.1403 12.1756 31.6257 12.86C31.1234 13.5322 30.4679 13.8683 29.6592 13.8683C28.9732 13.8683 28.3544 13.6911 27.803 13.3367C27.2517 12.97 26.8168 12.4994 26.4982 11.925C26.1797 11.3506 25.9284 10.7456 25.7446 10.11C25.5732 9.47443 25.4873 8.845 25.4873 8.22166C25.4873 6.60833 25.9652 5.20889 26.9209 4.02333C27.8888 2.83777 29.0774 2.22056 30.4863 2.17166C30.6089 2.17166 30.6884 2.18389 30.7252 2.20833C30.7619 2.22056 30.7987 2.27556 30.8355 2.37333L31.203 3.58333C31.2277 3.66889 31.2398 3.71777 31.2398 3.72999C31.2398 3.83999 31.197 3.895 31.1111 3.895C31.0376 3.895 30.9704 3.8461 30.909 3.74833C30.7007 3.43056 30.4067 3.27166 30.0268 3.27166C29.549 3.27166 29.1446 3.4611 28.8138 3.84C28.483 4.21889 28.2504 4.71389 28.1155 5.325C27.9807 5.92389 27.8828 6.47389 27.8214 6.97499C27.7725 7.46389 27.7479 7.965 27.7479 8.47833C27.7479 9.15056 27.797 9.76166 27.8949 10.3117C27.9931 10.8617 28.1155 11.2956 28.2625 11.6133C28.4095 11.9311 28.5688 12.2 28.7403 12.42C28.9241 12.6278 29.0895 12.7683 29.2365 12.8417C29.3836 12.915 29.5185 12.9517 29.6409 12.9517C29.9472 12.9517 30.2045 12.8417 30.4128 12.6217C30.6333 12.3894 30.7866 12.1083 30.8722 11.7783C30.958 11.4361 31.0132 11.155 31.0376 10.935C31.0744 10.7028 31.0928 10.5011 31.0928 10.33C31.0928 9.58443 30.9887 9.06499 30.7803 8.77166C30.7559 8.72277 30.7436 8.67389 30.7436 8.625C30.7436 8.53943 30.7743 8.47222 30.8355 8.42333C30.909 8.36222 30.9887 8.33166 31.0744 8.33166C31.2949 8.33166 31.5401 8.47222 31.8095 8.75333ZM33.441 12.9333V3.12499C33.441 3.01499 33.2939 2.90499 32.9999 2.79499C32.7058 2.68499 32.5588 2.59333 32.5588 2.51999C32.5588 2.42222 32.6384 2.37333 32.7977 2.37333H36.2528C36.412 2.37333 36.4918 2.4161 36.4918 2.50166C36.4918 2.58722 36.3324 2.6911 36.0139 2.81333C35.6953 2.92333 35.5361 3.02722 35.5361 3.12499V5.96666C35.5361 6.05222 35.5545 6.095 35.5912 6.095C35.6034 6.095 35.628 6.07666 35.6647 6.03999L37.5393 3.38166C37.625 3.27166 37.668 3.16166 37.668 3.05166C37.668 2.89277 37.5761 2.77666 37.3923 2.70333C37.2207 2.61777 37.135 2.55056 37.135 2.50166C37.135 2.4161 37.1962 2.37333 37.3188 2.37333H39.6896C39.812 2.37333 39.8734 2.4161 39.8734 2.50166C39.8734 2.55056 39.812 2.59943 39.6896 2.64833C39.567 2.68499 39.4139 2.7461 39.2301 2.83166C39.0464 2.90499 38.9054 3.00277 38.8074 3.12499L37.9804 4.16999L39.5977 12.75C39.6345 12.9456 39.7508 13.0861 39.9469 13.1717C40.1551 13.2572 40.3512 13.3183 40.535 13.355C40.7188 13.3917 40.8107 13.4406 40.8107 13.5017C40.8107 13.6117 40.7372 13.6667 40.5901 13.6667H36.8961C36.7735 13.6667 36.7123 13.6239 36.7123 13.5383C36.7123 13.4772 36.8286 13.3856 37.0615 13.2633C37.2942 13.1411 37.4107 13.0067 37.4107 12.86C37.4107 12.8356 37.4044 12.805 37.3923 12.7683C37.3923 12.7194 37.3923 12.6889 37.3923 12.6767L36.455 7.01166C36.4304 6.90166 36.3876 6.84666 36.3264 6.84666C36.2896 6.84666 36.2466 6.88333 36.1977 6.95666L35.5361 8.00166V12.9333C35.5361 13.0311 35.6953 13.1411 36.0139 13.2633C36.3324 13.3733 36.4918 13.4711 36.4918 13.5567C36.4918 13.63 36.4183 13.6667 36.2712 13.6667H32.7977C32.6384 13.6667 32.5588 13.6239 32.5588 13.5383C32.5588 13.465 32.7058 13.3733 32.9999 13.2633C33.2939 13.1411 33.441 13.0311 33.441 12.9333ZM3.47354 20.3767L3.78597 20.3583C4.14128 20.3583 4.53949 20.45 4.98057 20.6333C5.42165 20.8044 5.86885 21.0733 6.32219 21.44C6.77553 21.7944 7.15534 22.3077 7.46165 22.98C7.76796 23.6523 7.92111 24.4223 7.92111 25.29C7.92111 26.3656 7.65769 27.2823 7.13084 28.04C6.61624 28.7977 5.96688 29.3417 5.18273 29.6717C4.41084 30.0017 3.55931 30.1667 2.62814 30.1667H0.349216C0.177685 30.1667 0.0919189 30.1177 0.0919189 30.02C0.0919189 29.9223 0.251199 29.8183 0.569757 29.7083C0.900568 29.586 1.06597 29.4333 1.06597 29.25V18.1767C1.06597 18.03 0.900568 17.8894 0.569757 17.755C0.251199 17.6327 0.0919189 17.5227 0.0919189 17.425C0.0919189 17.3272 0.171559 17.2783 0.330838 17.2783H6.21192C6.35895 17.2783 6.49371 17.2294 6.61624 17.1317C6.653 17.095 6.68976 17.0767 6.72651 17.0767C6.81229 17.0767 6.86742 17.1439 6.89192 17.2783L7.14922 19.2217C7.14922 19.3073 7.11246 19.35 7.03895 19.35C7.00219 19.35 6.96543 19.3317 6.92868 19.295L6.35895 18.745C6.26093 18.6473 6.13229 18.5983 5.973 18.5983H3.62057C3.52256 18.5983 3.47354 18.641 3.47354 18.7267V20.3767ZM3.56543 29.2133C3.98202 29.2133 4.3312 29.0483 4.613 28.7183C4.90705 28.376 5.10922 27.9483 5.21949 27.435C5.32976 26.9094 5.40327 26.4817 5.44003 26.1517C5.47678 25.8094 5.49516 25.4977 5.49516 25.2167C5.49516 24.5444 5.44615 23.9517 5.34814 23.4383C5.26236 22.925 5.15823 22.54 5.0357 22.2833C4.91317 22.0144 4.76615 21.8006 4.59462 21.6417C4.43534 21.4827 4.29445 21.385 4.17192 21.3483C4.06165 21.2994 3.94526 21.275 3.82273 21.275C3.66344 21.275 3.55317 21.2994 3.49192 21.3483V29.2133H3.56543ZM11.4687 29.4333C11.4687 29.5067 11.4993 29.5617 11.5606 29.5983C11.6341 29.6473 11.7505 29.696 11.9098 29.745C12.0813 29.7939 12.1855 29.8306 12.2222 29.855C12.3447 29.9039 12.406 29.971 12.406 30.0567C12.406 30.13 12.3264 30.1667 12.1671 30.1667H8.71195C8.55268 30.1667 8.47303 30.13 8.47303 30.0567C8.47303 29.9833 8.5343 29.916 8.65681 29.855C8.80384 29.7817 8.95701 29.7267 9.11627 29.69C9.27556 29.641 9.35519 29.5556 9.35519 29.4333V19.625C9.35519 19.515 9.27556 19.4294 9.11627 19.3683C8.96925 19.3073 8.8161 19.2523 8.65681 19.2033C8.5343 19.1544 8.47303 19.0873 8.47303 19.0017C8.47303 18.916 8.55268 18.8733 8.71195 18.8733H12.1671C12.3019 18.8733 12.3815 18.916 12.406 19.0017C12.406 19.0873 12.3447 19.1544 12.2222 19.2033C12.0752 19.2277 11.9098 19.2827 11.726 19.3683C11.5545 19.4417 11.4687 19.5273 11.4687 19.625V29.4333ZM13.5271 19.625C13.5393 19.576 13.521 19.5333 13.4719 19.4967C13.423 19.4477 13.3617 19.411 13.2882 19.3867C13.2269 19.35 13.1534 19.3194 13.0676 19.295C12.9819 19.2583 12.9084 19.2277 12.8471 19.2033C12.7123 19.1544 12.6449 19.0873 12.6449 19.0017C12.6449 18.916 12.7246 18.8733 12.8838 18.8733H16.3574C16.5166 18.8733 16.5963 18.916 16.5963 19.0017C16.5963 19.0873 16.535 19.1544 16.4125 19.2033C16.2532 19.24 16.0817 19.295 15.8979 19.3683C15.7264 19.4417 15.6406 19.5273 15.6406 19.625V29.4333C15.6406 29.5067 15.6774 29.5617 15.7509 29.5983C15.8121 29.6473 15.9224 29.7023 16.0817 29.7633C16.241 29.8123 16.339 29.8367 16.3757 29.8367C16.5105 29.8856 16.5779 29.9589 16.5779 30.0567C16.5779 30.13 16.5044 30.1667 16.3574 30.1667H12.8838C12.7368 30.1667 12.6572 30.13 12.6449 30.0567C12.6449 29.9833 12.7123 29.916 12.8471 29.855C12.9819 29.7817 13.1289 29.7267 13.2882 29.69C13.4474 29.641 13.5271 29.5556 13.5271 29.4333V19.625ZM10.1455 29.305L13.8028 19.6067L14.6665 20.34L11.0276 29.9283L10.1455 29.305ZM23.0691 25.2533C23.4611 25.7056 23.6572 26.3044 23.6572 27.05C23.6572 27.9056 23.3999 28.6756 22.8853 29.36C22.3829 30.0323 21.7275 30.3683 20.9188 30.3683C20.2326 30.3683 19.614 30.191 19.0626 29.8367C18.5113 29.47 18.0763 28.9994 17.7577 28.425C17.4391 27.8506 17.188 27.2456 17.0042 26.61C16.8327 25.9744 16.7469 25.345 16.7469 24.7217C16.7469 23.1083 17.2247 21.7089 18.1804 20.5233C19.1483 19.3377 20.3368 18.7206 21.7459 18.6717C21.8683 18.6717 21.948 18.6839 21.9848 18.7083C22.0216 18.7206 22.0583 18.7756 22.0951 18.8733L22.4626 20.0833C22.4871 20.1689 22.4994 20.2177 22.4994 20.23C22.4994 20.34 22.4564 20.395 22.3707 20.395C22.2972 20.395 22.2298 20.346 22.1686 20.2483C21.9602 19.9306 21.6661 19.7717 21.2864 19.7717C20.8086 19.7717 20.4043 19.961 20.0734 20.34C19.7426 20.7189 19.5098 21.2139 19.3751 21.825C19.2402 22.4239 19.1422 22.9739 19.081 23.475C19.0319 23.9639 19.0075 24.465 19.0075 24.9783C19.0075 25.6506 19.0564 26.2617 19.1545 26.8117C19.2525 27.3617 19.3751 27.7956 19.5221 28.1133C19.6691 28.431 19.8283 28.7 19.9999 28.92C20.1837 29.1277 20.3491 29.2683 20.4961 29.3417C20.6432 29.415 20.7779 29.4517 20.9005 29.4517C21.2067 29.4517 21.464 29.3417 21.6724 29.1217C21.8929 28.8894 22.046 28.6083 22.1318 28.2783C22.2175 27.936 22.2726 27.655 22.2972 27.435C22.334 27.2027 22.3524 27.001 22.3524 26.83C22.3524 26.0844 22.2482 25.565 22.0399 25.2717C22.0153 25.2227 22.0032 25.1739 22.0032 25.125C22.0032 25.0394 22.0337 24.9723 22.0951 24.9233C22.1686 24.8623 22.2482 24.8317 22.334 24.8317C22.5545 24.8317 22.7995 24.9723 23.0691 25.2533ZM24.7004 29.4333V19.625C24.7004 19.515 24.5534 19.405 24.2593 19.295C23.9652 19.185 23.8182 19.0933 23.8182 19.02C23.8182 18.9223 23.898 18.8733 24.0571 18.8733H27.5123C27.6716 18.8733 27.7512 18.916 27.7512 19.0017C27.7512 19.0873 27.592 19.191 27.2734 19.3133C26.9549 19.4233 26.7955 19.5273 26.7955 19.625V22.4667C26.7955 22.5523 26.8139 22.595 26.8507 22.595C26.863 22.595 26.8874 22.5767 26.9242 22.54L28.7988 19.8817C28.8846 19.7717 28.9274 19.6617 28.9274 19.5517C28.9274 19.3927 28.8355 19.2767 28.6517 19.2033C28.4803 19.1177 28.3944 19.0506 28.3944 19.0017C28.3944 18.916 28.4558 18.8733 28.5782 18.8733H30.949C31.0716 18.8733 31.1328 18.916 31.1328 19.0017C31.1328 19.0506 31.0716 19.0994 30.949 19.1483C30.8266 19.185 30.6734 19.246 30.4896 19.3317C30.3058 19.405 30.165 19.5027 30.0669 19.625L29.2398 20.67L30.8571 29.25C30.8939 29.4456 31.0104 29.586 31.2063 29.6717C31.4147 29.7573 31.6107 29.8183 31.7944 29.855C31.9782 29.8917 32.0701 29.9406 32.0701 30.0017C32.0701 30.1117 31.9966 30.1667 31.8496 30.1667H28.1555C28.0331 30.1667 27.9717 30.1239 27.9717 30.0383C27.9717 29.9773 28.0883 29.8856 28.3209 29.7633C28.5538 29.641 28.6701 29.5067 28.6701 29.36C28.6701 29.3356 28.664 29.305 28.6517 29.2683C28.6517 29.2194 28.6517 29.1889 28.6517 29.1767L27.7144 23.5117C27.69 23.4017 27.6472 23.3467 27.5858 23.3467C27.549 23.3467 27.5062 23.3833 27.4571 23.4567L26.7955 24.5017V29.4333C26.7955 29.531 26.9549 29.641 27.2734 29.7633C27.592 29.8733 27.7512 29.971 27.7512 30.0567C27.7512 30.13 27.6777 30.1667 27.5307 30.1667H24.0571C23.898 30.1667 23.8182 30.1239 23.8182 30.0383C23.8182 29.965 23.9652 29.8733 24.2593 29.7633C24.5534 29.641 24.7004 29.531 24.7004 29.4333Z" fill="#00425A"/>
</svg>
