<svg width="221" height="37" viewBox="0 0 221 37" fill="none" xmlns="http://www.w3.org/2000/svg">
<path d="M198.399 5.10489C194.863 9.28083 194.736 15.2008 197.736 19.4799C197.472 20.5349 197.037 21.8536 196.324 23.1859L188.89 31.9653C188.89 31.9653 186.659 32.8821 186.612 33.6743C186.612 33.6743 186.362 34.3986 187.331 35.2186L187.604 35.4496L188.239 35.9878L188.512 36.2183C189.481 37.0383 190.154 36.6729 190.154 36.6729C190.928 36.4961 191.464 34.1435 191.464 34.1435L198.897 25.3641C200.093 24.4407 201.322 23.7942 202.319 23.36C207.034 25.6131 212.852 24.5115 216.388 20.3356C220.594 15.3683 219.977 7.9317 215.009 3.72567C210.041 -0.480357 202.604 0.137607 198.399 5.10489ZM189.581 33.5896L189.748 33.7303L190.082 34.0134C190.082 34.0134 189.988 35.0036 189.552 35.5186C189.552 35.5186 189.226 35.7537 188.867 35.4494L188.532 35.1663L188.366 35.0252L188.032 34.7421C187.672 34.4378 187.85 34.0768 187.85 34.0768C188.286 33.5622 189.248 33.3061 189.248 33.3061L189.581 33.5896Z" fill="#64828B"/>
<path d="M196.136 26.6136L200.956 20.9042C207.743 25.8483 217.455 20.3883 216.709 11.9485C216.483 9.30984 215.22 6.86845 213.197 5.15963C211.174 3.45081 208.556 2.61404 205.916 2.83278C197.466 3.51456 193.713 14.0049 199.726 19.8658L194.929 25.5948C194.84 25.7578 194.809 25.947 194.843 26.13C194.877 26.313 194.973 26.4787 195.115 26.5987C195.258 26.7188 195.437 26.7859 195.623 26.7886C195.809 26.7913 195.991 26.7295 196.136 26.6136ZM206.074 4.43602C208.287 4.25179 210.484 4.95344 212.181 6.38697C213.878 7.82051 214.937 9.8688 215.125 12.0823C215.601 23.1906 199.823 24.5239 198.428 13.4933C198.242 11.2787 198.943 9.08084 200.376 7.3826C201.81 5.68436 203.859 4.62457 206.074 4.43602Z" fill="white"/>
<path d="M15.744 6.6C16.0427 6.6 16.192 6.68533 16.192 6.856C16.192 7.02667 16.0747 7.15467 15.84 7.24C15.7547 7.26133 15.6267 7.304 15.456 7.368C15.2853 7.432 15.1467 7.48533 15.04 7.528C14.9333 7.54933 14.816 7.592 14.688 7.656C14.5813 7.72 14.496 7.79467 14.432 7.88C14.368 7.944 14.336 8.01867 14.336 8.104V27.528C14.336 27.656 14.4 27.7733 14.528 27.88C14.656 27.9653 14.88 28.0613 15.2 28.168C15.52 28.2747 15.712 28.3387 15.776 28.36C16.0533 28.4667 16.192 28.6053 16.192 28.776C16.192 28.9253 16.0427 29 15.744 29H8.864C8.608 29 8.45867 28.9253 8.416 28.776C8.416 28.6267 8.544 28.4987 8.8 28.392C8.88533 28.3493 9.00267 28.3067 9.152 28.264C9.30133 28.2 9.41867 28.1467 9.504 28.104C9.61067 28.0613 9.71733 28.0187 9.824 27.976C9.93067 27.912 10.0053 27.848 10.048 27.784C10.112 27.6987 10.144 27.6133 10.144 27.528L10.208 9.352C10.208 9.07467 10.0587 8.936 9.76 8.936H6.56C6.28267 8.936 6.144 9.07467 6.144 9.352L6.08 27.528C6.08 27.656 6.144 27.7733 6.272 27.88C6.42133 27.9653 6.656 28.0613 6.976 28.168C7.296 28.2747 7.488 28.3493 7.552 28.392C7.808 28.4773 7.936 28.6053 7.936 28.776C7.936 28.9253 7.776 29 7.456 29H0.608C0.309333 29 0.16 28.9253 0.16 28.776C0.16 28.6053 0.277333 28.4773 0.512 28.392C0.597333 28.3493 0.714667 28.3067 0.864 28.264C1.03467 28.2 1.16267 28.1467 1.248 28.104C1.35467 28.0613 1.46133 28.0187 1.568 27.976C1.67467 27.912 1.74933 27.848 1.792 27.784C1.856 27.6987 1.888 27.6133 1.888 27.528V8.104C1.888 8.04 1.86667 7.98667 1.824 7.944C1.80267 7.88 1.76 7.82667 1.696 7.784C1.65333 7.72 1.6 7.67733 1.536 7.656C1.472 7.61333 1.38667 7.57067 1.28 7.528C1.19467 7.48533 1.12 7.45333 1.056 7.432C0.992 7.41067 0.896 7.37867 0.768 7.336C0.661333 7.29333 0.576 7.26133 0.512 7.24C0.277333 7.15467 0.16 7.02667 0.16 6.856C0.16 6.68533 0.309333 6.6 0.608 6.6H15.744ZM16.5038 19.016C16.5038 17.9707 16.6211 16.8933 16.8558 15.784C17.1118 14.6747 17.4851 13.5973 17.9758 12.552C18.4664 11.5067 19.1598 10.6427 20.0558 9.96C20.9518 9.27733 21.9651 8.936 23.0958 8.936C24.2478 8.936 25.2611 9.288 26.1358 9.992C27.0318 10.6747 27.7144 11.5493 28.1838 12.616C28.6744 13.6827 29.0371 14.7707 29.2718 15.88C29.5278 16.968 29.6558 18.024 29.6558 19.048C29.6558 20.0507 29.5384 21.1067 29.3038 22.216C29.0904 23.3253 28.7491 24.4347 28.2798 25.544C27.8104 26.6533 27.1278 27.5707 26.2318 28.296C25.3358 29 24.3011 29.352 23.1278 29.352C21.9758 29.352 20.9411 29 20.0238 28.296C19.1278 27.592 18.4344 26.696 17.9438 25.608C17.4531 24.4987 17.0904 23.3893 16.8558 22.28C16.6211 21.1493 16.5038 20.0613 16.5038 19.016ZM23.1278 28.136C24.0024 28.136 24.6638 27.208 25.1118 25.352C25.5598 23.4747 25.7838 21.2773 25.7838 18.76C25.8051 16.3707 25.5811 14.3547 25.1118 12.712C24.6638 11.0693 23.9918 10.248 23.0958 10.248C22.2211 10.2693 21.5491 11.1013 21.0798 12.744C20.6318 14.3653 20.4078 16.3707 20.4078 18.76C20.4078 21.256 20.6318 23.4427 21.0798 25.32C21.5491 27.1973 22.2318 28.136 23.1278 28.136ZM35.1878 27.72C35.1878 27.848 35.2411 27.944 35.3478 28.008C35.4758 28.0933 35.6784 28.1787 35.9558 28.264C36.2544 28.3493 36.4358 28.4133 36.4998 28.456C36.7131 28.5413 36.8198 28.6587 36.8198 28.808C36.8198 28.936 36.6811 29 36.4038 29H30.3878C30.1104 29 29.9718 28.936 29.9718 28.808C29.9718 28.68 30.0784 28.5627 30.2918 28.456C30.5478 28.328 30.8144 28.232 31.0918 28.168C31.3691 28.0827 31.5078 27.9333 31.5078 27.72V10.6C31.5078 10.408 31.3691 10.2587 31.0918 10.152C30.8358 10.0453 30.5691 9.94933 30.2918 9.864C30.0784 9.77866 29.9718 9.66133 29.9718 9.512C29.9718 9.36267 30.1104 9.288 30.3878 9.288H36.4038C36.6384 9.288 36.7771 9.36267 36.8198 9.512C36.8198 9.66133 36.7131 9.77866 36.4998 9.864C36.2438 9.90667 35.9558 10.0027 35.6358 10.152C35.3371 10.28 35.1878 10.4293 35.1878 10.6V27.72ZM38.7718 10.6C38.7931 10.5147 38.7611 10.44 38.6758 10.376C38.5904 10.2907 38.4838 10.2267 38.3558 10.184C38.2491 10.12 38.1211 10.0667 37.9718 10.024C37.8224 9.96 37.6944 9.90667 37.5878 9.864C37.3531 9.77866 37.2358 9.66133 37.2358 9.512C37.2358 9.36267 37.3744 9.288 37.6518 9.288H43.6998C43.9771 9.288 44.1158 9.36267 44.1158 9.512C44.1158 9.66133 44.0091 9.77866 43.7958 9.864C43.5184 9.928 43.2198 10.024 42.8998 10.152C42.6011 10.28 42.4518 10.4293 42.4518 10.6V27.72C42.4518 27.848 42.5158 27.944 42.6438 28.008C42.7504 28.0933 42.9424 28.1893 43.2198 28.296C43.4971 28.3813 43.6678 28.424 43.7318 28.424C43.9664 28.5093 44.0838 28.6373 44.0838 28.808C44.0838 28.936 43.9558 29 43.6998 29H37.6518C37.3958 29 37.2571 28.936 37.2358 28.808C37.2358 28.68 37.3531 28.5627 37.5878 28.456C37.8224 28.328 38.0784 28.232 38.3558 28.168C38.6331 28.0827 38.7718 27.9333 38.7718 27.72V10.6ZM32.8838 27.496L39.2517 10.568L40.7558 11.848L34.4198 28.584L32.8838 27.496ZM55.386 20.424C56.0687 21.2133 56.41 22.2587 56.41 23.56C56.41 25.0533 55.962 26.3973 55.066 27.592C54.1913 28.7653 53.05 29.352 51.642 29.352C50.4473 29.352 49.37 29.0427 48.41 28.424C47.45 27.784 46.6927 26.9627 46.138 25.96C45.5833 24.9573 45.146 23.9013 44.826 22.792C44.5273 21.6827 44.378 20.584 44.378 19.496C44.378 16.68 45.21 14.2373 46.874 12.168C48.5593 10.0987 50.6287 9.02133 53.082 8.936C53.2953 8.936 53.434 8.95733 53.498 9C53.562 9.02133 53.626 9.11733 53.69 9.288L54.33 11.4C54.3727 11.5493 54.394 11.6347 54.394 11.656C54.394 11.848 54.3193 11.944 54.17 11.944C54.042 11.944 53.9247 11.8587 53.818 11.688C53.4553 11.1333 52.9433 10.856 52.282 10.856C51.45 10.856 50.746 11.1867 50.17 11.848C49.594 12.5093 49.1887 13.3733 48.954 14.44C48.7193 15.4853 48.5487 16.4453 48.442 17.32C48.3567 18.1733 48.314 19.048 48.314 19.944C48.314 21.1173 48.3993 22.184 48.57 23.144C48.7407 24.104 48.954 24.8613 49.21 25.416C49.466 25.9707 49.7433 26.44 50.042 26.824C50.362 27.1867 50.65 27.432 50.906 27.56C51.162 27.688 51.3967 27.752 51.61 27.752C52.1433 27.752 52.5913 27.56 52.954 27.176C53.338 26.7707 53.6047 26.28 53.754 25.704C53.9033 25.1067 53.9993 24.616 54.042 24.232C54.106 23.8267 54.138 23.4747 54.138 23.176C54.138 21.8747 53.9567 20.968 53.594 20.456C53.5513 20.3707 53.53 20.2853 53.53 20.2C53.53 20.0507 53.5833 19.9333 53.69 19.848C53.818 19.7413 53.9567 19.688 54.106 19.688C54.49 19.688 54.9167 19.9333 55.386 20.424ZM58.2265 27.72V10.6C58.2265 10.408 57.9705 10.216 57.4585 10.024C56.9465 9.832 56.6905 9.672 56.6905 9.544C56.6905 9.37333 56.8292 9.288 57.1065 9.288H63.1225C63.3998 9.288 63.5385 9.36267 63.5385 9.512C63.5385 9.66133 63.2612 9.84267 62.7065 10.056C62.1518 10.248 61.8745 10.4293 61.8745 10.6V15.56C61.8745 15.7093 61.9065 15.784 61.9705 15.784C61.9918 15.784 62.0345 15.752 62.0985 15.688L65.3625 11.048C65.5118 10.856 65.5865 10.664 65.5865 10.472C65.5865 10.1947 65.4265 9.992 65.1065 9.864C64.8078 9.71467 64.6585 9.59733 64.6585 9.512C64.6585 9.36267 64.7652 9.288 64.9785 9.288H69.1065C69.3198 9.288 69.4265 9.36267 69.4265 9.512C69.4265 9.59733 69.3198 9.68267 69.1065 9.768C68.8932 9.832 68.6265 9.93867 68.3065 10.088C67.9865 10.216 67.7412 10.3867 67.5705 10.6L66.1305 12.424L68.9465 27.4C69.0105 27.7413 69.2132 27.9867 69.5545 28.136C69.9172 28.2853 70.2585 28.392 70.5785 28.456C70.8985 28.52 71.0585 28.6053 71.0585 28.712C71.0585 28.904 70.9305 29 70.6745 29H64.2425C64.0292 29 63.9225 28.9253 63.9225 28.776C63.9225 28.6693 64.1252 28.5093 64.5305 28.296C64.9358 28.0827 65.1385 27.848 65.1385 27.592C65.1385 27.5493 65.1278 27.496 65.1065 27.432C65.1065 27.3467 65.1065 27.2933 65.1065 27.272L63.4745 17.384C63.4318 17.192 63.3572 17.096 63.2505 17.096C63.1865 17.096 63.1118 17.16 63.0265 17.288L61.8745 19.112V27.72C61.8745 27.8907 62.1518 28.0827 62.7065 28.296C63.2612 28.488 63.5385 28.6587 63.5385 28.808C63.5385 28.936 63.4105 29 63.1545 29H57.1065C56.8292 29 56.6905 28.9253 56.6905 28.776C56.6905 28.648 56.9465 28.488 57.4585 28.296C57.9705 28.0827 58.2265 27.8907 58.2265 27.72ZM80.169 9.288H83.657C85.0863 9.288 86.3877 9.544 87.561 10.056C88.7557 10.568 89.7477 11.4107 90.537 12.584C91.3477 13.736 91.753 15.1333 91.753 16.776C91.753 18.12 91.5183 19.304 91.049 20.328C90.5797 21.352 89.993 22.1413 89.289 22.696C88.6063 23.2507 87.9237 23.6667 87.241 23.944C86.5797 24.2213 85.9717 24.36 85.417 24.36L84.937 24.328V27.592C84.937 27.8907 85.2037 28.136 85.737 28.328C86.2917 28.52 86.569 28.6587 86.569 28.744C86.569 28.9147 86.441 29 86.185 29H80.169C79.8917 29 79.753 28.9253 79.753 28.776C79.753 28.648 79.9983 28.4773 80.489 28.264C81.001 28.0507 81.257 27.8693 81.257 27.72V10.696C81.257 10.4187 81.001 10.1947 80.489 10.024C79.9983 9.832 79.753 9.66133 79.753 9.512C79.753 9.36267 79.8917 9.288 80.169 9.288ZM84.969 10.76V22.824C85.0757 22.9093 85.2463 22.952 85.481 22.952C85.673 22.952 85.8543 22.92 86.025 22.856C86.217 22.792 86.4303 22.6427 86.665 22.408C86.921 22.152 87.145 21.8213 87.337 21.416C87.529 21.0107 87.689 20.4133 87.817 19.624C87.9663 18.8347 88.041 17.928 88.041 16.904C88.041 16.456 88.009 15.976 87.945 15.464C87.9023 14.952 87.7957 14.3013 87.625 13.512C87.4543 12.7013 87.145 12.04 86.697 11.528C86.2703 11.016 85.737 10.76 85.097 10.76H84.969ZM101.122 26.76C101.272 26.6107 101.432 26.4507 101.602 26.28C101.794 26.1093 101.922 25.992 101.986 25.928C102.05 25.864 102.104 25.832 102.146 25.832C102.274 25.832 102.338 25.896 102.338 26.024L102.274 26.28L101.538 29C101.453 29.2133 101.368 29.32 101.282 29.32C101.218 29.32 101.09 29.2667 100.898 29.16C100.728 29.0533 100.589 29 100.482 29H92.5143C92.1943 29 92.0343 28.9253 92.0343 28.776C92.0343 28.6693 92.2903 28.52 92.8023 28.328C93.3356 28.136 93.6023 27.88 93.6023 27.56V10.664C93.6023 10.4293 93.3463 10.216 92.8343 10.024C92.3223 9.832 92.0663 9.66133 92.0663 9.512C92.0663 9.36267 92.2049 9.288 92.4823 9.288H99.7143C99.7783 9.288 99.8956 9.23466 100.066 9.128C100.258 9.02133 100.397 8.968 100.482 8.968C100.632 8.968 100.717 9.07467 100.738 9.288L101.154 12.232V12.264C101.154 12.392 101.08 12.456 100.93 12.456C100.93 12.456 100.738 12.264 100.354 11.88C99.9703 11.496 99.6289 11.304 99.3303 11.304H97.5063C97.3569 11.304 97.2823 11.3787 97.2823 11.528V14.824C97.2823 14.8667 97.3143 14.888 97.3783 14.888H99.7463C100.066 14.888 100.301 14.856 100.45 14.792C100.6 14.728 100.813 14.568 101.09 14.312C101.218 14.2053 101.314 14.152 101.378 14.152C101.485 14.152 101.56 14.216 101.602 14.344L102.306 17.288L102.37 17.608C102.37 17.736 102.296 17.8 102.146 17.8C102.061 17.8 101.976 17.7573 101.89 17.672C101.869 17.6293 101.794 17.5547 101.666 17.448C101.56 17.3413 101.485 17.2667 101.442 17.224C101.421 17.1813 101.357 17.128 101.25 17.064C101.165 16.9787 101.09 16.936 101.026 16.936C100.962 16.9147 100.877 16.8933 100.77 16.872C100.664 16.8293 100.546 16.808 100.418 16.808H97.3783C97.3143 16.808 97.2823 16.84 97.2823 16.904V26.536C97.2823 26.8133 97.3676 26.952 97.5383 26.952H100.418C100.76 26.952 100.994 26.888 101.122 26.76ZM112.451 29C109.145 29 106.723 28.2213 105.187 26.664C103.673 25.1067 102.915 23.0267 102.915 20.424C102.915 19.976 102.937 19.56 102.979 19.176C103.022 18.7707 103.097 18.3333 103.203 17.864C103.331 17.3947 103.427 17.032 103.491 16.776C103.555 16.4987 103.705 16.0933 103.939 15.56C104.174 15.0053 104.323 14.6533 104.387 14.504C104.451 14.3333 104.633 13.928 104.931 13.288C105.23 12.6267 105.401 12.2533 105.443 12.168C105.635 11.6773 105.731 11.2933 105.731 11.016C105.731 10.7387 105.486 10.4507 104.995 10.152C104.526 9.85333 104.291 9.66133 104.291 9.576C104.291 9.49067 104.334 9.42667 104.419 9.384C104.526 9.32 104.633 9.288 104.739 9.288H108.291C109.017 9.288 109.379 9.55467 109.379 10.088C109.379 10.344 109.273 10.6533 109.059 11.016C108.462 12.04 107.897 13.5547 107.363 15.56C106.851 17.544 106.595 19.4213 106.595 21.192C106.595 22.92 106.905 24.4027 107.523 25.64C108.163 26.856 109.145 27.464 110.467 27.464C111.043 27.464 111.331 27.1333 111.331 26.472V10.664C111.331 10.4507 111.075 10.248 110.563 10.056C110.073 9.84267 109.827 9.66133 109.827 9.512C109.827 9.36267 109.955 9.288 110.211 9.288H116.259C116.515 9.288 116.643 9.352 116.643 9.48C116.643 9.62933 116.366 9.81067 115.811 10.024C115.278 10.2373 115.011 10.4613 115.011 10.696V26.984H116.291C116.441 26.9413 116.547 26.984 116.611 27.112C116.675 27.2187 116.707 27.3467 116.707 27.496L117.027 30.632C117.027 30.7387 116.974 30.792 116.867 30.792C116.803 30.792 116.75 30.7707 116.707 30.728L115.779 29.224C115.587 29.0747 115.395 29 115.203 29H112.451ZM126.466 26.76C126.615 26.6107 126.775 26.4507 126.946 26.28C127.138 26.1093 127.266 25.992 127.33 25.928C127.394 25.864 127.447 25.832 127.49 25.832C127.618 25.832 127.682 25.896 127.682 26.024L127.618 26.28L126.882 29C126.797 29.2133 126.711 29.32 126.626 29.32C126.562 29.32 126.434 29.2667 126.242 29.16C126.071 29.0533 125.933 29 125.826 29H117.858C117.538 29 117.378 28.9253 117.378 28.776C117.378 28.6693 117.634 28.52 118.146 28.328C118.679 28.136 118.946 27.88 118.946 27.56V10.664C118.946 10.4293 118.69 10.216 118.178 10.024C117.666 9.832 117.41 9.66133 117.41 9.512C117.41 9.36267 117.549 9.288 117.826 9.288H125.058C125.122 9.288 125.239 9.23466 125.41 9.128C125.602 9.02133 125.741 8.968 125.826 8.968C125.975 8.968 126.061 9.07467 126.082 9.288L126.498 12.232V12.264C126.498 12.392 126.423 12.456 126.274 12.456C126.274 12.456 126.082 12.264 125.698 11.88C125.314 11.496 124.973 11.304 124.674 11.304H122.85C122.701 11.304 122.626 11.3787 122.626 11.528V14.824C122.626 14.8667 122.658 14.888 122.722 14.888H125.09C125.41 14.888 125.645 14.856 125.794 14.792C125.943 14.728 126.157 14.568 126.434 14.312C126.562 14.2053 126.658 14.152 126.722 14.152C126.829 14.152 126.903 14.216 126.946 14.344L127.65 17.288L127.714 17.608C127.714 17.736 127.639 17.8 127.49 17.8C127.405 17.8 127.319 17.7573 127.234 17.672C127.213 17.6293 127.138 17.5547 127.01 17.448C126.903 17.3413 126.829 17.2667 126.786 17.224C126.765 17.1813 126.701 17.128 126.594 17.064C126.509 16.9787 126.434 16.936 126.37 16.936C126.306 16.9147 126.221 16.8933 126.114 16.872C126.007 16.8293 125.89 16.808 125.762 16.808H122.722C122.658 16.808 122.626 16.84 122.626 16.904V26.536C122.626 26.8133 122.711 26.952 122.882 26.952H125.762C126.103 26.952 126.338 26.888 126.466 26.76ZM134.435 9.288H141.731C141.987 9.288 142.115 9.36267 142.115 9.512C142.115 9.66133 142.019 9.77866 141.827 9.864C141.742 9.864 141.624 9.896 141.475 9.96C141.326 10.024 141.198 10.0667 141.091 10.088C141.006 10.1093 140.91 10.152 140.803 10.216C140.718 10.28 140.643 10.344 140.579 10.408C140.515 10.472 140.483 10.536 140.483 10.6V27.72C140.483 27.8267 140.536 27.9227 140.643 28.008C140.771 28.0933 140.974 28.1893 141.251 28.296C141.528 28.3813 141.699 28.424 141.763 28.424C141.998 28.5307 142.115 28.6587 142.115 28.808C142.115 28.936 141.987 29 141.731 29H135.683C135.448 29 135.31 28.936 135.267 28.808C135.267 28.68 135.384 28.5627 135.619 28.456C135.704 28.4347 135.811 28.4027 135.939 28.36C136.067 28.296 136.174 28.2533 136.259 28.232C136.344 28.1893 136.43 28.1467 136.515 28.104C136.622 28.04 136.696 27.976 136.739 27.912C136.782 27.848 136.803 27.784 136.803 27.72L136.867 11.72C136.867 11.464 136.728 11.336 136.451 11.336H133.635C133.4 11.336 133.283 11.464 133.283 11.72L133.219 27.72C133.219 27.8267 133.283 27.9227 133.411 28.008C133.539 28.0933 133.742 28.1893 134.019 28.296C134.296 28.3813 134.467 28.4347 134.531 28.456C134.744 28.5413 134.851 28.6587 134.851 28.808C134.851 28.936 134.712 29 134.435 29H128.419C128.142 29 128.003 28.936 128.003 28.808C128.003 28.6587 128.11 28.5413 128.323 28.456C128.408 28.4347 128.515 28.4027 128.643 28.36C128.792 28.296 128.91 28.2533 128.995 28.232C129.08 28.1893 129.166 28.1467 129.251 28.104C129.358 28.04 129.432 27.976 129.475 27.912C129.518 27.848 129.539 27.784 129.539 27.72V10.6C129.539 10.5573 129.518 10.5147 129.475 10.472C129.454 10.408 129.422 10.3547 129.379 10.312C129.336 10.2693 129.283 10.2373 129.219 10.216C129.176 10.1733 129.112 10.1413 129.027 10.12C128.942 10.0773 128.867 10.0453 128.803 10.024C128.739 10.0027 128.654 9.97067 128.547 9.928C128.462 9.88533 128.387 9.864 128.323 9.864C128.11 9.77866 128.003 9.66133 128.003 9.512C128.003 9.36267 128.142 9.288 128.419 9.288H134.435ZM143.849 9.288H152.841C152.948 9.288 153.097 9.23466 153.289 9.128C153.503 9.02133 153.631 8.968 153.673 8.968C153.801 8.968 153.876 9.07467 153.897 9.288L154.281 12.296C154.281 12.4027 154.228 12.456 154.121 12.456C154.057 12.456 153.993 12.4347 153.929 12.392L153.065 11.528C152.916 11.3787 152.724 11.304 152.489 11.304H150.409C150.26 11.304 150.185 11.3787 150.185 11.528V27.592C150.185 27.8693 150.452 28.104 150.985 28.296C151.54 28.488 151.817 28.648 151.817 28.776C151.817 28.9253 151.689 29 151.433 29H145.385C145.129 29 145.001 28.9253 145.001 28.776C145.001 28.648 145.247 28.4773 145.737 28.264C146.249 28.0507 146.505 27.8587 146.505 27.688V11.528C146.505 11.3787 146.431 11.304 146.281 11.304H144.201C143.967 11.304 143.775 11.3787 143.625 11.528L142.761 12.392C142.697 12.4347 142.633 12.456 142.569 12.456C142.463 12.4347 142.409 12.36 142.409 12.232L142.441 12.04V11.976L142.793 9.288C142.836 9.07467 142.911 8.968 143.017 8.968C143.06 8.968 143.177 9.02133 143.369 9.128C143.561 9.23466 143.721 9.288 143.849 9.288ZM154.566 19.016C154.566 17.9707 154.684 16.8933 154.918 15.784C155.174 14.6747 155.548 13.5973 156.038 12.552C156.529 11.5067 157.222 10.6427 158.118 9.96C159.014 9.27733 160.028 8.936 161.158 8.936C162.31 8.936 163.324 9.288 164.198 9.992C165.094 10.6747 165.777 11.5493 166.246 12.616C166.737 13.6827 167.1 14.7707 167.334 15.88C167.59 16.968 167.718 18.024 167.718 19.048C167.718 20.0507 167.601 21.1067 167.366 22.216C167.153 23.3253 166.812 24.4347 166.342 25.544C165.873 26.6533 165.19 27.5707 164.294 28.296C163.398 29 162.364 29.352 161.19 29.352C160.038 29.352 159.004 29 158.086 28.296C157.19 27.592 156.497 26.696 156.006 25.608C155.516 24.4987 155.153 23.3893 154.918 22.28C154.684 21.1493 154.566 20.0613 154.566 19.016ZM161.19 28.136C162.065 28.136 162.726 27.208 163.174 25.352C163.622 23.4747 163.846 21.2773 163.846 18.76C163.868 16.3707 163.644 14.3547 163.174 12.712C162.726 11.0693 162.054 10.248 161.158 10.248C160.284 10.2693 159.612 11.1013 159.142 12.744C158.694 14.3653 158.47 16.3707 158.47 18.76C158.47 21.256 158.694 23.4427 159.142 25.32C159.612 27.1973 160.294 28.136 161.19 28.136ZM175.522 15.912C176.909 16.0827 178.008 16.712 178.818 17.8C179.629 18.888 180.034 20.168 180.034 21.64C180.034 22.8347 179.746 23.976 179.17 25.064C178.616 26.152 177.794 27.048 176.706 27.752C176.109 28.1573 175.416 28.456 174.626 28.648C173.837 28.8187 173.176 28.9253 172.642 28.968C172.13 28.9893 171.32 29 170.21 29H168.322C168.13 29 168.034 28.9253 168.034 28.776C168.034 28.6693 168.28 28.52 168.77 28.328C169.282 28.1147 169.538 27.8267 169.538 27.464V10.824C169.538 10.5467 169.421 10.3227 169.186 10.152C168.973 9.96 168.749 9.82133 168.514 9.736C168.301 9.65067 168.194 9.56533 168.194 9.48C168.194 9.352 168.322 9.288 168.578 9.288H173.858C175.138 9.288 176.205 9.58667 177.058 10.184C177.933 10.76 178.37 11.5813 178.37 12.648C178.37 13.4587 178.093 14.1733 177.538 14.792C177.005 15.3893 176.333 15.7627 175.522 15.912ZM173.218 10.504V15.56C173.304 15.5813 173.4 15.592 173.506 15.592C174.21 15.592 174.733 15.3467 175.074 14.856C175.416 14.344 175.586 13.7573 175.586 13.096C175.586 12.4133 175.437 11.816 175.138 11.304C174.84 10.7707 174.381 10.504 173.762 10.504H173.218ZM173.218 17.096V27.464C173.794 27.464 174.285 27.272 174.69 26.888C175.117 26.504 175.437 26.0027 175.65 25.384C175.885 24.7653 176.045 24.136 176.13 23.496C176.237 22.856 176.29 22.216 176.29 21.576C176.29 20.552 176.205 19.7093 176.034 19.048C175.885 18.3867 175.672 17.9173 175.394 17.64C175.117 17.3627 174.861 17.1813 174.626 17.096C174.392 17.0107 174.114 16.968 173.794 16.968C173.538 16.968 173.346 17.0107 173.218 17.096Z" fill="#343A40"/>
<path d="M0 32.2H180.194V33.8H0V32.2Z" fill="#343A40"/>
</svg>
