<svg width="20" height="20" viewBox="0 0 20 20" fill="none" xmlns="http://www.w3.org/2000/svg">
<g clip-path="url(#clip0_41_3210)">
<path d="M10.183 8.57151H15.183C15.2872 8.57151 15.3728 8.53809 15.4395 8.47105C15.5066 8.40409 15.5401 8.3186 15.5401 8.21434V6.07153C15.5401 5.96727 15.5066 5.88178 15.4395 5.81482C15.3728 5.74793 15.2872 5.71436 15.183 5.71436H10.183C10.0788 5.71436 9.99332 5.74778 9.92631 5.81482C9.85947 5.88178 9.82593 5.96727 9.82593 6.07153V8.21434C9.82593 8.3186 9.85935 8.40409 9.92631 8.47105C9.99332 8.53798 10.0788 8.57151 10.183 8.57151Z" fill="#1F7A8C"/>
<path d="M10.1833 2.85712H13.0403C13.1445 2.85712 13.2301 2.8237 13.2969 2.75673C13.364 2.68973 13.3971 2.60424 13.3971 2.50002V0.357135C13.3971 0.253036 13.364 0.167427 13.2969 0.100425C13.2301 0.0335791 13.1445 0 13.0403 0H10.1833C10.0791 0 9.99356 0.0334228 9.92656 0.100386C9.85975 0.167427 9.82617 0.253036 9.82617 0.357096V2.49999C9.82617 2.6042 9.85959 2.68969 9.92656 2.7567C9.9936 2.82354 10.0791 2.85712 10.1833 2.85712Z" fill="#1F7A8C"/>
<path d="M7.68304 15.7142H5.54019V0.357135C5.54019 0.253036 5.5068 0.167309 5.4398 0.100425C5.3728 0.0335792 5.28731 0 5.18305 0H3.04016C2.93606 0 2.85034 0.0334228 2.78345 0.100386C2.71664 0.167427 2.68306 0.253036 2.68306 0.357096V15.7142H0.540176C0.376619 15.7142 0.264975 15.7885 0.205401 15.9373C0.145787 16.0789 0.171978 16.209 0.283465 16.3281L3.85486 19.8996C3.93671 19.9663 4.0222 19.9998 4.11157 19.9998C4.20828 19.9998 4.29393 19.9663 4.36828 19.8996L7.92853 16.3393C8.00303 16.2502 8.04017 16.1606 8.04017 16.0717C8.04017 15.9671 8.00659 15.8818 7.93979 15.8144C7.87282 15.7477 7.78733 15.7142 7.68304 15.7142Z" fill="#1F7A8C"/>
<path d="M19.7256 17.2434C19.6586 17.1762 19.5732 17.1428 19.4689 17.1428H10.1833C10.0791 17.1428 9.99356 17.1762 9.92656 17.2434C9.85975 17.3103 9.82617 17.3959 9.82617 17.5V19.6427C9.82617 19.7472 9.85959 19.8324 9.92656 19.8996C9.9936 19.9665 10.0791 19.9999 10.1833 19.9999H19.4689C19.5731 19.9999 19.6586 19.9665 19.7256 19.8996C19.7925 19.8324 19.8259 19.7472 19.8259 19.6427V17.5C19.8261 17.3959 19.7925 17.3103 19.7256 17.2434Z" fill="#1F7A8C"/>
<path d="M10.183 14.2856H17.326C17.4301 14.2856 17.5157 14.2522 17.5828 14.1853C17.6496 14.1184 17.683 14.0328 17.683 13.9287V11.7857C17.683 11.6816 17.6496 11.596 17.5828 11.5291C17.5156 11.4622 17.4301 11.4288 17.326 11.4288H10.183C10.0788 11.4288 9.99332 11.4622 9.92631 11.5291C9.85947 11.596 9.82593 11.6816 9.82593 11.7857V13.9287C9.82593 14.0328 9.85935 14.1185 9.92631 14.1853C9.99332 14.2522 10.0788 14.2856 10.183 14.2856Z" fill="#1F7A8C"/>
</g>
<defs>
<clipPath id="clip0_41_3210">
<rect width="20" height="20" fill="white"/>
</clipPath>
</defs>
</svg>
