<svg width="20" height="20" viewBox="0 0 20 20" fill="none" xmlns="http://www.w3.org/2000/svg">
<g clip-path="url(#clip0_485_655)">
<path d="M10 0C8.02219 0 6.08879 0.58649 4.4443 1.6853C2.79981 2.78412 1.51809 4.3459 0.761209 6.17317C0.00433281 8.00043 -0.193701 10.0111 0.192152 11.9509C0.578004 13.8907 1.53041 15.6725 2.92894 17.0711C4.32746 18.4696 6.10929 19.422 8.0491 19.8079C9.98891 20.1937 11.9996 19.9957 13.8268 19.2388C15.6541 18.4819 17.2159 17.2002 18.3147 15.5557C19.4135 13.9112 20 11.9778 20 10C20 7.34784 18.9464 4.8043 17.0711 2.92893C15.1957 1.05357 12.6522 0 10 0ZM10 18.3344C8.35162 18.3344 6.74025 17.8456 5.36967 16.9298C3.99909 16.014 2.93086 14.7123 2.30005 13.1894C1.66924 11.6665 1.50419 9.99076 1.82577 8.37404C2.14736 6.75733 2.94113 5.27229 4.10671 4.10671C5.27229 2.94112 6.75734 2.14735 8.37405 1.82577C9.99076 1.50418 11.6665 1.66923 13.1894 2.30004C14.7123 2.93085 16.014 3.99909 16.9298 5.36967C17.8456 6.74025 18.3344 8.35162 18.3344 10C18.3302 12.2091 17.4508 14.3266 15.8887 15.8887C14.3266 17.4508 12.2091 18.3302 10 18.3344Z" fill="#797979"/>
<path d="M13.6093 10.8344L11.3905 9.16567L10.8343 8.75005V4.16567C10.8343 3.94438 10.7464 3.73216 10.5899 3.57568C10.4334 3.41921 10.2212 3.3313 9.9999 3.3313C9.77861 3.3313 9.56639 3.41921 9.40991 3.57568C9.25343 3.73216 9.16553 3.94438 9.16553 4.16567V9.16567C9.16616 9.23102 9.17455 9.29606 9.19053 9.35942C9.20551 9.42057 9.22863 9.47943 9.25928 9.53442C9.28076 9.5892 9.31141 9.63993 9.3499 9.68442C9.3499 9.68442 9.3499 9.70942 9.3749 9.71567C9.40952 9.75607 9.44828 9.79272 9.49053 9.82505L9.5249 9.85005L10.8249 10.825L12.8249 12.325C12.9684 12.4345 13.1444 12.4928 13.3249 12.4907C13.4995 12.49 13.6695 12.4346 13.8109 12.3323C13.9524 12.2299 14.0581 12.0858 14.1134 11.9202C14.1686 11.7545 14.1704 11.5758 14.1187 11.409C14.0669 11.2423 13.9642 11.0959 13.8249 10.9907L13.6093 10.8344Z" fill="#797979"/>
</g>
<defs>
<clipPath id="clip0_485_655">
<rect width="20" height="20" fill="white"/>
</clipPath>
</defs>
</svg>
